<?xml version="1.0" encoding="UTF-8"?>
<!DOCTYPE svg PUBLIC "-//W3C//DTD SVG 1.1//EN" "http://www.w3.org/Graphics/SVG/1.1/DTD/svg11.dtd">
<svg version="1.1" xmlns="http://www.w3.org/2000/svg" xmlns:xlink="http://www.w3.org/1999/xlink" x="0px" y="0px" width="800" height="470" viewBox="0, 0, 800, 470">
  <g id="Background">
    <rect x="0" y="0" width="800" height="470" fill="#000000" fill-opacity="0"/>
  </g>
  <g id="Layer 1">
    <text transform="matrix(1, 0, 0, 1, 200, 174)">
      <tspan x="-132" y="-84" font-family="Verdana-Bold" font-size="30" fill="#294270">checkio([</tspan>
      <tspan x="-132" y="-48" font-family="Verdana-Bold" font-size="30" fill="#294270">	</tspan>
      <tspan x="-104" y="-48" font-family="Verdana-Bold" font-size="30" fill="#294270">[1,2,3,4,5],</tspan>
      <tspan x="-132" y="-12" font-family="Verdana-Bold" font-size="30" fill="#294270">	[1,1,1,2,3],</tspan>
      <tspan x="-132" y="24" font-family="Verdana-Bold" font-size="30" fill="#294270">	[1,1,1,2,2],</tspan>
      <tspan x="-132" y="60" font-family="Verdana-Bold" font-size="30" fill="#294270">	[1,2,2,2,1],</tspan>
      <tspan x="-132" y="96" font-family="Verdana-Bold" font-size="30" fill="#294270">	[1,1,1,1,1]])</tspan>
    </text>
    <g>
      <path d="M332.5,20.5 L412.5,20.5 L412.5,100.5 L332.5,100.5 z" fill="#FABA00"/>
      <path d="M332.5,20.5 L412.5,20.5 L412.5,100.5 L332.5,100.5 z" fill-opacity="0" stroke="#294270" stroke-width="2"/>
    </g>
    <g>
      <text transform="matrix(1, 0, 0, 1, 372, 60)">
        <tspan x="-17.062" y="18.5" font-family="Verdana-Bold" font-size="48" fill="#294270">1</tspan>
      </text>
      <path d="M384.469,78.5 L361.172,78.5 L361.172,72.406 L368.531,72.406 L368.531,53.961 L361.172,53.961 L361.172,48.266 Q362.859,48.266 364.406,48.066 Q365.953,47.867 366.984,47.375 Q368.203,46.789 368.813,45.852 Q369.422,44.914 369.516,43.508 L377.273,43.508 L377.273,72.406 L384.469,72.406 z" fill-opacity="0" stroke="#294270" stroke-width="2"/>
    </g>
    <g>
      <path d="M412.5,20.5 L492.5,20.5 L492.5,100.5 L412.5,100.5 z" fill="#8FC7ED"/>
      <path d="M412.5,20.5 L492.5,20.5 L492.5,100.5 L412.5,100.5 z" fill-opacity="0" stroke="#294270" stroke-width="2"/>
    </g>
    <g>
      <text transform="matrix(1, 0, 0, 1, 452, 60)">
        <tspan x="-17.062" y="18.5" font-family="Verdana-Bold" font-size="48" fill="#294270">2</tspan>
      </text>
      <path d="M466.672,78.5 L439.273,78.5 L439.273,72.734 Q442.414,70.461 445.566,67.906 Q448.719,65.352 450.617,63.5 Q453.453,60.758 454.648,58.719 Q455.844,56.68 455.844,54.687 Q455.844,52.297 454.309,50.996 Q452.773,49.695 449.891,49.695 Q447.734,49.695 445.355,50.586 Q442.977,51.477 440.938,52.859 L440.188,52.859 L440.188,45.102 Q441.852,44.375 445.098,43.648 Q448.344,42.922 451.602,42.922 Q458.164,42.922 461.609,45.676 Q465.055,48.43 465.055,53.469 Q465.055,56.773 463.402,59.75 Q461.75,62.727 458.352,65.891 Q456.219,67.859 454.063,69.512 Q451.906,71.164 450.992,71.82 L466.672,71.82 z" fill-opacity="0" stroke="#294270" stroke-width="2"/>
    </g>
    <g>
      <path d="M492.5,20.5 L572.5,20.5 L572.5,100.5 L492.5,100.5 z" fill="#69B3E3"/>
      <path d="M492.5,20.5 L572.5,20.5 L572.5,100.5 L492.5,100.5 z" fill-opacity="0" stroke="#294270" stroke-width="2"/>
    </g>
    <g>
      <text transform="matrix(1, 0, 0, 1, 532, 60)">
        <tspan x="-17.062" y="18.5" font-family="Verdana-Bold" font-size="48" fill="#294270">3</tspan>
      </text>
      <path d="M543.25,62.141 Q544.398,63.125 545.078,64.438 Q545.758,65.75 545.758,67.93 Q545.758,70.391 544.785,72.523 Q543.812,74.656 541.797,76.18 Q539.828,77.656 537.168,78.441 Q534.508,79.227 530.711,79.227 Q526.375,79.227 523.27,78.547 Q520.164,77.867 518.219,77.023 L518.219,69.359 L519.133,69.359 Q521.148,70.578 523.949,71.469 Q526.75,72.359 529.07,72.359 Q530.43,72.359 532.023,72.137 Q533.617,71.914 534.719,71.164 Q535.586,70.578 536.102,69.746 Q536.617,68.914 536.617,67.344 Q536.617,65.82 535.914,64.988 Q535.211,64.156 534.062,63.805 Q532.914,63.43 531.297,63.395 Q529.68,63.359 528.297,63.359 L526.375,63.359 L526.375,57.125 L528.367,57.125 Q530.195,57.125 531.602,57.008 Q533.008,56.891 533.992,56.469 Q535.023,56.023 535.539,55.285 Q536.055,54.547 536.055,53.117 Q536.055,52.062 535.516,51.418 Q534.977,50.773 534.156,50.398 Q533.242,49.977 532,49.836 Q530.758,49.695 529.867,49.695 Q527.664,49.695 525.086,50.457 Q522.508,51.219 520.094,52.648 L519.227,52.648 L519.227,45.078 Q521.148,44.305 524.453,43.59 Q527.758,42.875 531.156,42.875 Q534.461,42.875 536.945,43.449 Q539.43,44.023 541.047,44.984 Q542.969,46.133 543.906,47.773 Q544.844,49.414 544.844,51.617 Q544.844,54.523 543.039,56.809 Q541.234,59.094 538.281,59.727 L538.281,60.055 Q539.477,60.219 540.812,60.711 Q542.148,61.203 543.25,62.141 z" fill-opacity="0" stroke="#294270" stroke-width="2"/>
    </g>
    <g>
      <path d="M572.5,20.5 L652.5,20.5 L652.5,100.5 L572.5,100.5 z" fill="#6BA3CF"/>
      <path d="M572.5,20.5 L652.5,20.5 L652.5,100.5 L572.5,100.5 z" fill-opacity="0" stroke="#294270" stroke-width="2"/>
    </g>
    <g>
      <text transform="matrix(1, 0, 0, 1, 612, 60)">
        <tspan x="-17.062" y="18.5" font-family="Verdana-Bold" font-size="48" fill="#294270">4</tspan>
      </text>
      <path d="M627.164,70.461 L622.406,70.461 L622.406,78.594 L613.805,78.594 L613.805,70.461 L596.906,70.461 L596.906,63.852 L613.242,43.602 L622.406,43.602 L622.406,64.086 L627.164,64.086 z M613.805,64.086 L613.805,51.477 L603.656,64.086 z" fill-opacity="0" stroke="#294270" stroke-width="2"/>
    </g>
    <g>
      <path d="M652.5,20.5 L732.5,20.5 L732.5,100.5 L652.5,100.5 z" fill="#0A82BD"/>
      <path d="M652.5,20.5 L732.5,20.5 L732.5,100.5 L652.5,100.5 z" fill-opacity="0" stroke="#294270" stroke-width="2"/>
    </g>
    <g>
      <text transform="matrix(1, 0, 0, 1, 692, 60)">
        <tspan x="-17.062" y="18.5" font-family="Verdana-Bold" font-size="48" fill="#294270">5</tspan>
      </text>
      <path d="M705.922,66.688 Q705.922,69.406 704.902,71.738 Q703.883,74.07 701.938,75.734 Q699.781,77.516 696.98,78.371 Q694.18,79.227 690.594,79.227 Q686.398,79.203 683.504,78.559 Q680.609,77.914 678.781,77.117 L678.781,69.406 L679.766,69.406 Q681.898,70.672 684.359,71.516 Q686.82,72.359 689.258,72.359 Q690.734,72.359 692.457,72.02 Q694.18,71.68 695.188,70.789 Q695.984,70.062 696.395,69.312 Q696.805,68.562 696.805,66.992 Q696.805,65.773 696.254,64.895 Q695.703,64.016 694.836,63.477 Q693.57,62.703 691.789,62.457 Q690.008,62.211 688.555,62.211 Q686.445,62.211 684.512,62.574 Q682.578,62.937 681.125,63.289 L680.094,63.289 L680.094,43.602 L704.914,43.602 L704.914,50.281 L688.555,50.281 L688.555,55.977 Q689.281,55.93 690.395,55.895 Q691.508,55.859 692.352,55.859 Q695.234,55.859 697.496,56.41 Q699.758,56.961 701.398,57.945 Q703.531,59.234 704.727,61.355 Q705.922,63.477 705.922,66.688 z" fill-opacity="0" stroke="#294270" stroke-width="2"/>
    </g>
    <g>
      <path d="M332.5,100.5 L412.5,100.5 L412.5,180.5 L332.5,180.5 z" fill="#FABA00"/>
      <path d="M332.5,100.5 L412.5,100.5 L412.5,180.5 L332.5,180.5 z" fill-opacity="0" stroke="#294270" stroke-width="2"/>
    </g>
    <g>
      <text transform="matrix(1, 0, 0, 1, 372, 140)">
        <tspan x="-17.062" y="18.5" font-family="Verdana-Bold" font-size="48" fill="#294270">1</tspan>
      </text>
      <path d="M384.469,158.5 L361.172,158.5 L361.172,152.406 L368.531,152.406 L368.531,133.961 L361.172,133.961 L361.172,128.266 Q362.859,128.266 364.406,128.066 Q365.953,127.867 366.984,127.375 Q368.203,126.789 368.813,125.852 Q369.422,124.914 369.516,123.508 L377.273,123.508 L377.273,152.406 L384.469,152.406 z" fill-opacity="0" stroke="#294270" stroke-width="2"/>
    </g>
    <g>
      <path d="M412.5,100.5 L492.5,100.5 L492.5,180.5 L412.5,180.5 z" fill="#FABA00"/>
      <path d="M412.5,100.5 L492.5,100.5 L492.5,180.5 L412.5,180.5 z" fill-opacity="0" stroke="#294270" stroke-width="2"/>
    </g>
    <g>
      <text transform="matrix(1, 0, 0, 1, 452, 140)">
        <tspan x="-17.062" y="18.5" font-family="Verdana-Bold" font-size="48" fill="#294270">1</tspan>
      </text>
      <path d="M464.469,158.5 L441.172,158.5 L441.172,152.406 L448.531,152.406 L448.531,133.961 L441.172,133.961 L441.172,128.266 Q442.859,128.266 444.406,128.066 Q445.953,127.867 446.984,127.375 Q448.203,126.789 448.813,125.852 Q449.422,124.914 449.516,123.508 L457.273,123.508 L457.273,152.406 L464.469,152.406 z" fill-opacity="0" stroke="#294270" stroke-width="2"/>
    </g>
    <g>
      <path d="M492.5,100.5 L572.5,100.5 L572.5,180.5 L492.5,180.5 z" fill="#FABA00"/>
      <path d="M492.5,100.5 L572.5,100.5 L572.5,180.5 L492.5,180.5 z" fill-opacity="0" stroke="#294270" stroke-width="2"/>
    </g>
    <g>
      <text transform="matrix(1, 0, 0, 1, 532, 140)">
        <tspan x="-17.062" y="18.5" font-family="Verdana-Bold" font-size="48" fill="#294270">1</tspan>
      </text>
      <path d="M544.469,158.5 L521.172,158.5 L521.172,152.406 L528.531,152.406 L528.531,133.961 L521.172,133.961 L521.172,128.266 Q522.859,128.266 524.406,128.066 Q525.953,127.867 526.984,127.375 Q528.203,126.789 528.812,125.852 Q529.422,124.914 529.516,123.508 L537.273,123.508 L537.273,152.406 L544.469,152.406 z" fill-opacity="0" stroke="#294270" stroke-width="2"/>
    </g>
    <g>
      <path d="M572.5,100.5 L652.5,100.5 L652.5,180.5 L572.5,180.5 z" fill="#8FC7ED"/>
      <path d="M572.5,100.5 L652.5,100.5 L652.5,180.5 L572.5,180.5 z" fill-opacity="0" stroke="#294270" stroke-width="2"/>
    </g>
    <g>
      <text transform="matrix(1, 0, 0, 1, 612, 140)">
        <tspan x="-17.062" y="18.5" font-family="Verdana-Bold" font-size="48" fill="#294270">2</tspan>
      </text>
      <path d="M626.672,158.5 L599.273,158.5 L599.273,152.734 Q602.414,150.461 605.566,147.906 Q608.719,145.352 610.617,143.5 Q613.453,140.758 614.648,138.719 Q615.844,136.68 615.844,134.688 Q615.844,132.297 614.309,130.996 Q612.773,129.695 609.891,129.695 Q607.734,129.695 605.355,130.586 Q602.977,131.477 600.938,132.859 L600.188,132.859 L600.188,125.102 Q601.852,124.375 605.098,123.648 Q608.344,122.922 611.602,122.922 Q618.164,122.922 621.609,125.676 Q625.055,128.43 625.055,133.469 Q625.055,136.773 623.402,139.75 Q621.75,142.727 618.352,145.891 Q616.219,147.859 614.062,149.512 Q611.906,151.164 610.992,151.82 L626.672,151.82 z" fill-opacity="0" stroke="#294270" stroke-width="2"/>
    </g>
    <g>
      <path d="M652.5,100.5 L732.5,100.5 L732.5,180.5 L652.5,180.5 z" fill="#69B3E3"/>
      <path d="M652.5,100.5 L732.5,100.5 L732.5,180.5 L652.5,180.5 z" fill-opacity="0" stroke="#294270" stroke-width="2"/>
    </g>
    <g>
      <text transform="matrix(1, 0, 0, 1, 692, 140)">
        <tspan x="-17.062" y="18.5" font-family="Verdana-Bold" font-size="48" fill="#294270">3</tspan>
      </text>
      <path d="M703.25,142.141 Q704.398,143.125 705.078,144.438 Q705.758,145.75 705.758,147.93 Q705.758,150.391 704.785,152.523 Q703.812,154.656 701.797,156.18 Q699.828,157.656 697.168,158.441 Q694.508,159.227 690.711,159.227 Q686.375,159.227 683.27,158.547 Q680.164,157.867 678.219,157.023 L678.219,149.359 L679.133,149.359 Q681.148,150.578 683.949,151.469 Q686.75,152.359 689.07,152.359 Q690.43,152.359 692.023,152.137 Q693.617,151.914 694.719,151.164 Q695.586,150.578 696.102,149.746 Q696.617,148.914 696.617,147.344 Q696.617,145.82 695.914,144.988 Q695.211,144.156 694.062,143.805 Q692.914,143.43 691.297,143.395 Q689.68,143.359 688.297,143.359 L686.375,143.359 L686.375,137.125 L688.367,137.125 Q690.195,137.125 691.602,137.008 Q693.008,136.891 693.992,136.469 Q695.023,136.023 695.539,135.285 Q696.055,134.547 696.055,133.117 Q696.055,132.062 695.516,131.418 Q694.977,130.773 694.156,130.398 Q693.242,129.977 692,129.836 Q690.758,129.695 689.867,129.695 Q687.664,129.695 685.086,130.457 Q682.508,131.219 680.094,132.648 L679.227,132.648 L679.227,125.078 Q681.148,124.305 684.453,123.59 Q687.758,122.875 691.156,122.875 Q694.461,122.875 696.945,123.449 Q699.43,124.023 701.047,124.984 Q702.969,126.133 703.906,127.773 Q704.844,129.414 704.844,131.617 Q704.844,134.523 703.039,136.809 Q701.234,139.094 698.281,139.727 L698.281,140.055 Q699.477,140.219 700.812,140.711 Q702.148,141.203 703.25,142.141 z" fill-opacity="0" stroke="#294270" stroke-width="2"/>
    </g>
    <g>
      <path d="M332.5,180.5 L412.5,180.5 L412.5,260.5 L332.5,260.5 z" fill="#FABA00"/>
      <path d="M332.5,180.5 L412.5,180.5 L412.5,260.5 L332.5,260.5 z" fill-opacity="0" stroke="#294270" stroke-width="2"/>
    </g>
    <g>
      <text transform="matrix(1, 0, 0, 1, 372, 220)">
        <tspan x="-17.062" y="18.5" font-family="Verdana-Bold" font-size="48" fill="#294270">1</tspan>
      </text>
      <path d="M384.469,238.5 L361.172,238.5 L361.172,232.406 L368.531,232.406 L368.531,213.961 L361.172,213.961 L361.172,208.266 Q362.859,208.266 364.406,208.066 Q365.953,207.867 366.984,207.375 Q368.203,206.789 368.813,205.852 Q369.422,204.914 369.516,203.508 L377.273,203.508 L377.273,232.406 L384.469,232.406 z" fill-opacity="0" stroke="#294270" stroke-width="2"/>
    </g>
    <g>
      <path d="M412.5,180.5 L492.5,180.5 L492.5,260.5 L412.5,260.5 z" fill="#FABA00"/>
      <path d="M412.5,180.5 L492.5,180.5 L492.5,260.5 L412.5,260.5 z" fill-opacity="0" stroke="#294270" stroke-width="2"/>
    </g>
    <g>
      <text transform="matrix(1, 0, 0, 1, 452, 220)">
        <tspan x="-17.062" y="18.5" font-family="Verdana-Bold" font-size="48" fill="#294270">1</tspan>
      </text>
      <path d="M464.469,238.5 L441.172,238.5 L441.172,232.406 L448.531,232.406 L448.531,213.961 L441.172,213.961 L441.172,208.266 Q442.859,208.266 444.406,208.066 Q445.953,207.867 446.984,207.375 Q448.203,206.789 448.813,205.852 Q449.422,204.914 449.516,203.508 L457.273,203.508 L457.273,232.406 L464.469,232.406 z" fill-opacity="0" stroke="#294270" stroke-width="2"/>
    </g>
    <g>
      <path d="M492.5,180.5 L572.5,180.5 L572.5,260.5 L492.5,260.5 z" fill="#FABA00"/>
      <path d="M492.5,180.5 L572.5,180.5 L572.5,260.5 L492.5,260.5 z" fill-opacity="0" stroke="#294270" stroke-width="2"/>
    </g>
    <g>
      <text transform="matrix(1, 0, 0, 1, 532, 220)">
        <tspan x="-17.062" y="18.5" font-family="Verdana-Bold" font-size="48" fill="#294270">1</tspan>
      </text>
      <path d="M544.469,238.5 L521.172,238.5 L521.172,232.406 L528.531,232.406 L528.531,213.961 L521.172,213.961 L521.172,208.266 Q522.859,208.266 524.406,208.066 Q525.953,207.867 526.984,207.375 Q528.203,206.789 528.812,205.852 Q529.422,204.914 529.516,203.508 L537.273,203.508 L537.273,232.406 L544.469,232.406 z" fill-opacity="0" stroke="#294270" stroke-width="2"/>
    </g>
    <g>
      <path d="M572.5,180.5 L652.5,180.5 L652.5,260.5 L572.5,260.5 z" fill="#8FC7ED"/>
      <path d="M572.5,180.5 L652.5,180.5 L652.5,260.5 L572.5,260.5 z" fill-opacity="0" stroke="#294270" stroke-width="2"/>
    </g>
    <g>
      <text transform="matrix(1, 0, 0, 1, 612, 220)">
        <tspan x="-17.062" y="18.5" font-family="Verdana-Bold" font-size="48" fill="#294270">2</tspan>
      </text>
      <path d="M626.672,238.5 L599.273,238.5 L599.273,232.734 Q602.414,230.461 605.566,227.906 Q608.719,225.352 610.617,223.5 Q613.453,220.758 614.648,218.719 Q615.844,216.68 615.844,214.688 Q615.844,212.297 614.309,210.996 Q612.773,209.695 609.891,209.695 Q607.734,209.695 605.355,210.586 Q602.977,211.477 600.938,212.859 L600.188,212.859 L600.188,205.102 Q601.852,204.375 605.098,203.648 Q608.344,202.922 611.602,202.922 Q618.164,202.922 621.609,205.676 Q625.055,208.43 625.055,213.469 Q625.055,216.773 623.402,219.75 Q621.75,222.727 618.352,225.891 Q616.219,227.859 614.062,229.512 Q611.906,231.164 610.992,231.82 L626.672,231.82 z" fill-opacity="0" stroke="#294270" stroke-width="2"/>
    </g>
    <g>
      <path d="M652.5,180.5 L732.5,180.5 L732.5,260.5 L652.5,260.5 z" fill="#8FC7ED"/>
      <path d="M652.5,180.5 L732.5,180.5 L732.5,260.5 L652.5,260.5 z" fill-opacity="0" stroke="#294270" stroke-width="2"/>
    </g>
    <g>
      <text transform="matrix(1, 0, 0, 1, 692, 220)">
        <tspan x="-17.062" y="18.5" font-family="Verdana-Bold" font-size="48" fill="#294270">2</tspan>
      </text>
      <path d="M706.672,238.5 L679.273,238.5 L679.273,232.734 Q682.414,230.461 685.566,227.906 Q688.719,225.352 690.617,223.5 Q693.453,220.758 694.648,218.719 Q695.844,216.68 695.844,214.688 Q695.844,212.297 694.309,210.996 Q692.773,209.695 689.891,209.695 Q687.734,209.695 685.355,210.586 Q682.977,211.477 680.938,212.859 L680.188,212.859 L680.188,205.102 Q681.852,204.375 685.098,203.648 Q688.344,202.922 691.602,202.922 Q698.164,202.922 701.609,205.676 Q705.055,208.43 705.055,213.469 Q705.055,216.773 703.402,219.75 Q701.75,222.727 698.352,225.891 Q696.219,227.859 694.062,229.512 Q691.906,231.164 690.992,231.82 L706.672,231.82 z" fill-opacity="0" stroke="#294270" stroke-width="2"/>
    </g>
    <g>
      <path d="M332.5,260.5 L412.5,260.5 L412.5,340.5 L332.5,340.5 z" fill="#FABA00"/>
      <path d="M332.5,260.5 L412.5,260.5 L412.5,340.5 L332.5,340.5 z" fill-opacity="0" stroke="#294270" stroke-width="2"/>
    </g>
    <g>
      <text transform="matrix(1, 0, 0, 1, 372, 300)">
        <tspan x="-17.062" y="18.5" font-family="Verdana-Bold" font-size="48" fill="#294270">1</tspan>
      </text>
      <path d="M384.469,318.5 L361.172,318.5 L361.172,312.406 L368.531,312.406 L368.531,293.961 L361.172,293.961 L361.172,288.266 Q362.859,288.266 364.406,288.066 Q365.953,287.867 366.984,287.375 Q368.203,286.789 368.813,285.852 Q369.422,284.914 369.516,283.508 L377.273,283.508 L377.273,312.406 L384.469,312.406 z" fill-opacity="0" stroke="#294270" stroke-width="2"/>
    </g>
    <g>
      <path d="M412.5,260.5 L492.5,260.5 L492.5,340.5 L412.5,340.5 z" fill="#8FC7ED"/>
      <path d="M412.5,260.5 L492.5,260.5 L492.5,340.5 L412.5,340.5 z" fill-opacity="0" stroke="#294270" stroke-width="2"/>
    </g>
    <g>
      <text transform="matrix(1, 0, 0, 1, 452, 300)">
        <tspan x="-17.062" y="18.5" font-family="Verdana-Bold" font-size="48" fill="#294270">2</tspan>
      </text>
      <path d="M466.672,318.5 L439.273,318.5 L439.273,312.734 Q442.414,310.461 445.566,307.906 Q448.719,305.352 450.617,303.5 Q453.453,300.758 454.648,298.719 Q455.844,296.68 455.844,294.688 Q455.844,292.297 454.309,290.996 Q452.773,289.695 449.891,289.695 Q447.734,289.695 445.355,290.586 Q442.977,291.477 440.938,292.859 L440.188,292.859 L440.188,285.102 Q441.852,284.375 445.098,283.648 Q448.344,282.922 451.602,282.922 Q458.164,282.922 461.609,285.676 Q465.055,288.43 465.055,293.469 Q465.055,296.773 463.402,299.75 Q461.75,302.727 458.352,305.891 Q456.219,307.859 454.063,309.512 Q451.906,311.164 450.992,311.82 L466.672,311.82 z" fill-opacity="0" stroke="#294270" stroke-width="2"/>
    </g>
    <g>
      <path d="M492.5,260.5 L572.5,260.5 L572.5,340.5 L492.5,340.5 z" fill="#8FC7ED"/>
      <path d="M492.5,260.5 L572.5,260.5 L572.5,340.5 L492.5,340.5 z" fill-opacity="0" stroke="#294270" stroke-width="2"/>
    </g>
    <g>
      <text transform="matrix(1, 0, 0, 1, 532, 300)">
        <tspan x="-17.062" y="18.5" font-family="Verdana-Bold" font-size="48" fill="#294270">2</tspan>
      </text>
      <path d="M546.672,318.5 L519.273,318.5 L519.273,312.734 Q522.414,310.461 525.566,307.906 Q528.719,305.352 530.617,303.5 Q533.453,300.758 534.648,298.719 Q535.844,296.68 535.844,294.688 Q535.844,292.297 534.309,290.996 Q532.773,289.695 529.891,289.695 Q527.734,289.695 525.355,290.586 Q522.977,291.477 520.938,292.859 L520.188,292.859 L520.188,285.102 Q521.852,284.375 525.098,283.648 Q528.344,282.922 531.602,282.922 Q538.164,282.922 541.609,285.676 Q545.055,288.43 545.055,293.469 Q545.055,296.773 543.402,299.75 Q541.75,302.727 538.352,305.891 Q536.219,307.859 534.062,309.512 Q531.906,311.164 530.992,311.82 L546.672,311.82 z" fill-opacity="0" stroke="#294270" stroke-width="2"/>
    </g>
    <g>
      <path d="M572.5,260.5 L652.5,260.5 L652.5,340.5 L572.5,340.5 z" fill="#8FC7ED"/>
      <path d="M572.5,260.5 L652.5,260.5 L652.5,340.5 L572.5,340.5 z" fill-opacity="0" stroke="#294270" stroke-width="2"/>
    </g>
    <g>
      <text transform="matrix(1, 0, 0, 1, 612, 300)">
        <tspan x="-17.062" y="18.5" font-family="Verdana-Bold" font-size="48" fill="#294270">2</tspan>
      </text>
      <path d="M626.672,318.5 L599.273,318.5 L599.273,312.734 Q602.414,310.461 605.566,307.906 Q608.719,305.352 610.617,303.5 Q613.453,300.758 614.648,298.719 Q615.844,296.68 615.844,294.688 Q615.844,292.297 614.309,290.996 Q612.773,289.695 609.891,289.695 Q607.734,289.695 605.355,290.586 Q602.977,291.477 600.938,292.859 L600.188,292.859 L600.188,285.102 Q601.852,284.375 605.098,283.648 Q608.344,282.922 611.602,282.922 Q618.164,282.922 621.609,285.676 Q625.055,288.43 625.055,293.469 Q625.055,296.773 623.402,299.75 Q621.75,302.727 618.352,305.891 Q616.219,307.859 614.062,309.512 Q611.906,311.164 610.992,311.82 L626.672,311.82 z" fill-opacity="0" stroke="#294270" stroke-width="2"/>
    </g>
    <g>
      <path d="M652.5,260.5 L732.5,260.5 L732.5,340.5 L652.5,340.5 z" fill="#FABA00"/>
      <path d="M652.5,260.5 L732.5,260.5 L732.5,340.5 L652.5,340.5 z" fill-opacity="0" stroke="#294270" stroke-width="2"/>
    </g>
    <g>
      <text transform="matrix(1, 0, 0, 1, 692, 300)">
        <tspan x="-17.062" y="18.5" font-family="Verdana-Bold" font-size="48" fill="#294270">1</tspan>
      </text>
      <path d="M704.469,318.5 L681.172,318.5 L681.172,312.406 L688.531,312.406 L688.531,293.961 L681.172,293.961 L681.172,288.266 Q682.859,288.266 684.406,288.066 Q685.953,287.867 686.984,287.375 Q688.203,286.789 688.812,285.852 Q689.422,284.914 689.516,283.508 L697.273,283.508 L697.273,312.406 L704.469,312.406 z" fill-opacity="0" stroke="#294270" stroke-width="2"/>
    </g>
    <g>
      <path d="M332.5,340.5 L412.5,340.5 L412.5,420.5 L332.5,420.5 z" fill="#FABA00"/>
      <path d="M332.5,340.5 L412.5,340.5 L412.5,420.5 L332.5,420.5 z" fill-opacity="0" stroke="#294270" stroke-width="2"/>
    </g>
    <g>
      <text transform="matrix(1, 0, 0, 1, 372, 380)">
        <tspan x="-17.062" y="18.5" font-family="Verdana-Bold" font-size="48" fill="#294270">1</tspan>
      </text>
      <path d="M384.469,398.5 L361.172,398.5 L361.172,392.406 L368.531,392.406 L368.531,373.961 L361.172,373.961 L361.172,368.266 Q362.859,368.266 364.406,368.066 Q365.953,367.867 366.984,367.375 Q368.203,366.789 368.813,365.852 Q369.422,364.914 369.516,363.508 L377.273,363.508 L377.273,392.406 L384.469,392.406 z" fill-opacity="0" stroke="#294270" stroke-width="2"/>
    </g>
    <g>
      <path d="M412.5,340.5 L492.5,340.5 L492.5,420.5 L412.5,420.5 z" fill="#FABA00"/>
      <path d="M412.5,340.5 L492.5,340.5 L492.5,420.5 L412.5,420.5 z" fill-opacity="0" stroke="#294270" stroke-width="2"/>
    </g>
    <g>
      <text transform="matrix(1, 0, 0, 1, 452, 380)">
        <tspan x="-17.062" y="18.5" font-family="Verdana-Bold" font-size="48" fill="#294270">1</tspan>
      </text>
      <path d="M464.469,398.5 L441.172,398.5 L441.172,392.406 L448.531,392.406 L448.531,373.961 L441.172,373.961 L441.172,368.266 Q442.859,368.266 444.406,368.066 Q445.953,367.867 446.984,367.375 Q448.203,366.789 448.813,365.852 Q449.422,364.914 449.516,363.508 L457.273,363.508 L457.273,392.406 L464.469,392.406 z" fill-opacity="0" stroke="#294270" stroke-width="2"/>
    </g>
    <g>
      <path d="M492.5,340.5 L572.5,340.5 L572.5,420.5 L492.5,420.5 z" fill="#FABA00"/>
      <path d="M492.5,340.5 L572.5,340.5 L572.5,420.5 L492.5,420.5 z" fill-opacity="0" stroke="#294270" stroke-width="2"/>
    </g>
    <g>
      <text transform="matrix(1, 0, 0, 1, 532, 380)">
        <tspan x="-17.062" y="18.5" font-family="Verdana-Bold" font-size="48" fill="#294270">1</tspan>
      </text>
      <path d="M544.469,398.5 L521.172,398.5 L521.172,392.406 L528.531,392.406 L528.531,373.961 L521.172,373.961 L521.172,368.266 Q522.859,368.266 524.406,368.066 Q525.953,367.867 526.984,367.375 Q528.203,366.789 528.812,365.852 Q529.422,364.914 529.516,363.508 L537.273,363.508 L537.273,392.406 L544.469,392.406 z" fill-opacity="0" stroke="#294270" stroke-width="2"/>
    </g>
    <g>
      <path d="M572.5,340.5 L652.5,340.5 L652.5,420.5 L572.5,420.5 z" fill="#FABA00"/>
      <path d="M572.5,340.5 L652.5,340.5 L652.5,420.5 L572.5,420.5 z" fill-opacity="0" stroke="#294270" stroke-width="2"/>
    </g>
    <g>
      <text transform="matrix(1, 0, 0, 1, 612, 380)">
        <tspan x="-17.062" y="18.5" font-family="Verdana-Bold" font-size="48" fill="#294270">1</tspan>
      </text>
      <path d="M624.469,398.5 L601.172,398.5 L601.172,392.406 L608.531,392.406 L608.531,373.961 L601.172,373.961 L601.172,368.266 Q602.859,368.266 604.406,368.066 Q605.953,367.867 606.984,367.375 Q608.203,366.789 608.812,365.852 Q609.422,364.914 609.516,363.508 L617.273,363.508 L617.273,392.406 L624.469,392.406 z" fill-opacity="0" stroke="#294270" stroke-width="2"/>
    </g>
    <g>
      <path d="M652.5,340.5 L732.5,340.5 L732.5,420.5 L652.5,420.5 z" fill="#FABA00"/>
      <path d="M652.5,340.5 L732.5,340.5 L732.5,420.5 L652.5,420.5 z" fill-opacity="0" stroke="#294270" stroke-width="2"/>
    </g>
    <g>
      <text transform="matrix(1, 0, 0, 1, 692, 380)">
        <tspan x="-17.062" y="18.5" font-family="Verdana-Bold" font-size="48" fill="#294270">1</tspan>
      </text>
      <path d="M704.469,398.5 L681.172,398.5 L681.172,392.406 L688.531,392.406 L688.531,373.961 L681.172,373.961 L681.172,368.266 Q682.859,368.266 684.406,368.066 Q685.953,367.867 686.984,367.375 Q688.203,366.789 688.812,365.852 Q689.422,364.914 689.516,363.508 L697.273,363.508 L697.273,392.406 L704.469,392.406 z" fill-opacity="0" stroke="#294270" stroke-width="2"/>
    </g>
    <text transform="matrix(1, 0, 0, 1, 186.118, 358.5)">
      <tspan x="-118.118" y="11.5" font-family="Verdana-Bold" font-size="30" fill="#294270">Result: [14,1]</tspan>
    </text>
  </g>
  <defs/>
</svg>
